<?xml version="1.0" encoding="UTF-8"?><svg xmlns="http://www.w3.org/2000/svg" xmlns:xlink="http://www.w3.org/1999/xlink" viewBox="0 0 157.83 64.56"><defs><style>.x{fill:url(#u);}.y{fill:url(#t);}.a`{fill:url(#v);}.aa{fill:url(#e);}.ab{fill:url(#d);}.ac{fill:url(#g);}.ad{fill:url(#f);}.ae{fill:url(#p);}.af{fill:url(#o);}.ag{fill:url(#s);}.ah{fill:url(#q);}.ai{fill:url(#r);}.aj{fill:url(#i);}.ak{fill:url(#h);}.al{fill:url(#k);}.am{fill:url(#j);}.an{fill:url(#m);}.ao{fill:url(#l);}.ap{fill:url(#n);}.aq{fill:url(#w);}.ar{fill:#fff;}.as{fill:#782e17;}</style><linearGradient id="d" x1="51.65" y1="25.8" x2="79.4" y2="25.8" gradientTransform="matrix(1, 0, 0, 1, 0, 0)" gradientUnits="userSpaceOnUse"><stop offset="0" stop-color="#7a2b02"/><stop offset="1" stop-color="#be7028"/></linearGradient><linearGradient id="e" x1="81.04" x2="115.79" xlink:href="#d"/><linearGradient id="f" x1="118.79" x2="157.83" xlink:href="#d"/><linearGradient id="g" x1="94.12" y1="30.37" x2="102.71" y2="30.37" xlink:href="#d"/><linearGradient id="h" x1="1.56" y1="27.92" x2="2.89" y2="27.92" xlink:href="#d"/><linearGradient id="i" x1="40.46" y1="37.74" x2="41.78" y2="37.74" xlink:href="#d"/><linearGradient id="j" x1="1.72" y1="21.83" x2="34.86" y2="21.83" xlink:href="#d"/><linearGradient id="k" x1="8.49" y1="43.82" x2="41.63" y2="43.82" xlink:href="#d"/><linearGradient id="l" x1="8.97" y1="38.22" x2="43.24" y2="23.68" xlink:href="#d"/><linearGradient id="m" x1="5.18" y1="13.57" x2="27.98" y2="13.57" xlink:href="#d"/><linearGradient id="n" x1="0" y1="27.92" x2="19.27" y2="27.92" xlink:href="#d"/><linearGradient id="o" x1="20.85" y1="10.43" x2="33.15" y2="10.43" xlink:href="#d"/><linearGradient id="p" x1="29.26" y1="45.76" x2="36.92" y2="45.76" xlink:href="#d"/><linearGradient id="q" x1="37.15" y1="40.82" x2="38.91" y2="40.82" xlink:href="#d"/><linearGradient id="r" x1="10.16" y1="46.76" x2="43.35" y2="46.76" xlink:href="#d"/><linearGradient id="s" x1="4343.04" y1="1522.23" x2="4346.99" y2="1522.23" gradientTransform="translate(4176.95 -1994.04) rotate(135)" xlink:href="#d"/><linearGradient id="t" x1="4358.32" y1="1516.39" x2="4362.27" y2="1516.39" gradientTransform="translate(4176.95 -1994.04) rotate(135)" xlink:href="#d"/><linearGradient id="u" x1="4375.32" y1="1503.94" x2="4379.27" y2="1503.94" gradientTransform="translate(4176.95 -1994.04) rotate(135)" xlink:href="#d"/><linearGradient id="v" x1="4386.43" y1="1499.47" x2="4390.38" y2="1499.47" gradientTransform="translate(4176.95 -1994.04) rotate(135)" xlink:href="#d"/><linearGradient id="w" x1="4380" y1="1487.82" x2="4383.96" y2="1487.82" gradientTransform="translate(4176.95 -1994.04) rotate(135)" xlink:href="#d"/></defs><g id="a"/><g id="b"><g id="c"><g><g><path class="as" d="M53.39,43.09c.16,0,.22,.05,.28,.16l3.58,6.58c.04,.07,.07,.09,.15,.09h.06c.06,0,.1-.01,.13-.09l3.53-6.58c.06-.12,.13-.16,.28-.16h1.6c.2,0,.23,.12,.15,.28l-4.01,7.35c-.4,.75-.77,.93-1.28,.93h-.71c-.64,0-.99-.18-1.41-.93l-4.06-7.35c-.09-.16-.05-.28,.16-.28h1.54Z"/><path class="as" d="M71.17,43.09c.18,0,.27,.09,.27,.27v8.02c0,.18-.09,.27-.27,.27h-1.32c-.18,0-.28-.09-.28-.27v-8.02c0-.18,.1-.27,.28-.27h1.32Z"/><path class="as" d="M87.14,43.09c.18,0,.28,.09,.28,.27v1.16c0,.18-.1,.27-.28,.27h-5.34c-1.27,0-1.63,.38-1.63,1.66v.12h6.91c.18,0,.27,.09,.27,.27v.97c0,.18-.09,.27-.27,.27h-6.91v.21c0,1.28,.35,1.66,1.63,1.66h5.34c.18,0,.28,.09,.28,.27v1.16c0,.18-.1,.27-.28,.27h-5.38c-2.47,0-3.42-.88-3.42-3.23v-2.1c0-2.35,.95-3.23,3.42-3.23h5.38Z"/><path class="as" d="M97.79,51.38v-6.54h-3.84c-.18,0-.28-.1-.28-.28v-1.2c0-.18,.1-.27,.28-.27h9.55c.18,0,.28,.09,.28,.27v1.2c0,.18-.1,.28-.28,.28h-3.84v6.54c0,.18-.09,.27-.27,.27h-1.33c-.18,0-.27-.09-.27-.27"/><path class="as" d="M112.41,43.09c.78,0,.95,.1,1.42,.72l4.55,5.97c.04,.06,.09,.09,.16,.09h.11c.06,0,.1-.04,.1-.12v-6.38c0-.18,.09-.27,.27-.27h1.28c.18,0,.27,.09,.27,.27v7.02c0,.99-.35,1.27-1.1,1.27h-1.05c-.75,0-.93-.07-1.42-.72l-4.56-5.96c-.05-.06-.09-.09-.16-.09h-.11c-.07,0-.1,.04-.1,.12v6.38c0,.18-.09,.27-.27,.27h-1.28c-.18,0-.28-.09-.28-.27v-7.02c0-.99,.35-1.27,1.1-1.27h1.08Z"/><path class="as" d="M132.99,43.09c.62,0,1,.2,1.41,.93l4.05,7.35c.09,.16,.05,.28-.15,.28h-1.55c-.16,0-.22-.04-.28-.16l-.87-1.58h-5.75l-.84,1.58c-.06,.12-.13,.16-.28,.16h-1.59c-.21,0-.24-.12-.16-.28l4.01-7.35c.4-.73,.77-.93,1.28-.93h.72Zm-2.37,5.4h4.2l-1.94-3.58c-.04-.06-.07-.09-.13-.09h-.07c-.06,0-.1,.02-.13,.09l-1.92,3.58Z"/><path class="as" d="M147.27,43.09c.73,0,.98,.16,1.31,.93l2.54,5.87c.04,.09,.09,.11,.17,.11h.15c.09,0,.13-.02,.17-.11l2.54-5.87c.33-.77,.57-.93,1.3-.93h1.31c.86,0,1.08,.34,1.08,1.27v7.02c0,.18-.1,.27-.28,.27h-1.25c-.18,0-.27-.09-.27-.27v-6.38c0-.09-.02-.12-.1-.12h-.11c-.09,0-.13,.02-.16,.1l-2.47,5.48c-.4,.88-.75,1.2-1.56,1.2h-.59c-.82,0-1.16-.32-1.56-1.2l-2.47-5.48c-.02-.07-.07-.1-.16-.1h-.11c-.07,0-.1,.04-.1,.12v6.38c0,.18-.09,.27-.27,.27h-1.25c-.18,0-.28-.09-.28-.27v-7.02c0-.93,.22-1.27,1.09-1.27h1.33Z"/></g><g><path class="ab" d="M72.97,23.4h-13.79c-1.29,0-1.92-.7-1.92-2.06v-1.25c0-1.29,.55-2.06,1.95-2.06h18.42c.55,0,.81-.26,.81-.81v-3.49c0-.55-.26-.81-.81-.81h-19.49c-4.45,0-6.51,2.42-6.51,5.99v2.69c0,4.05,2.21,6.33,6.44,6.33h13.79c1.28,0,1.91,.7,1.91,2.06v1.51c0,1.29-.55,2.06-1.95,2.06h-19.3c-.55,0-.85,.26-.85,.81v3.49c0,.55,.29,.81,.85,.81h20.37c4.45,0,6.51-2.43,6.51-5.99v-2.94c0-4.05-2.21-6.33-6.43-6.33Z"/><path class="aa" d="M115.66,37.82l-12.17-22.1c-1.21-2.21-2.35-2.8-4.22-2.8h-2.17c-1.54,0-2.65,.58-3.86,2.8l-12.06,22.1c-.26,.47-.15,.85,.47,.85h4.78c.44,0,.66-.12,.85-.48l2.54-4.74,2.31-4.26,5.77-10.78c.12-.18,.22-.26,.4-.26h.22c.19,0,.29,.08,.4,.26l5.85,10.78,2.31,4.26,2.62,4.74c.18,.37,.37,.48,.84,.48h4.67c.59,0,.7-.37,.44-.85Z"/><path class="ad" d="M154.6,12.93h-3.94c-2.17,0-2.9,.47-3.9,2.8l-7.65,17.65c-.11,.26-.26,.33-.51,.33h-.44c-.26,0-.4-.07-.51-.33l-7.65-17.65c-.99-2.32-1.73-2.8-3.94-2.8h-4.01c-2.62,0-3.28,1.03-3.28,3.82v21.1c0,.55,.29,.81,.85,.81h3.75c.55,0,.81-.26,.81-.81V18.66c0-.26,.08-.37,.29-.37h.33c.26,0,.4,.07,.47,.29l7.43,16.48c1.21,2.64,2.24,3.6,4.71,3.6h1.76c2.47,0,3.49-.96,4.71-3.6l7.42-16.48c.08-.22,.22-.29,.48-.29h.33c.22,0,.29,.11,.29,.37v19.19c0,.55,.26,.81,.81,.81h3.75c.55,0,.84-.26,.84-.81V16.75c0-2.8-.66-3.82-3.23-3.82Z"/><rect class="ac" x="94.12" y="28.24" width="8.59" height="4.27" rx=".77" ry=".77"/></g><g><g><g><path class="ak" d="M2.23,28.58h0c-.36,0-.66-.3-.66-.66s.3-.66,.66-.66,.67,.3,.67,.66-.29,.66-.66,.66Z"/><path class="aj" d="M41.12,38.4h0c-.36,0-.66-.3-.66-.66s.3-.66,.66-.66,.66,.3,.66,.66-.29,.66-.66,.66Z"/></g><path class="am" d="M11.87,38.4H6.5c-1.73,0-3.36-.67-4.58-1.89-.12-.12-.19-.29-.19-.47s.07-.34,.19-.47l3.21-3.21c.26-.26,.68-.26,.93,0s.26,.68,0,.93l-2.71,2.71c.9,.69,2,1.07,3.15,1.07h3.57c-.06-.18-.09-.37-.09-.56,0-.5,.2-.99,.56-1.34L32.3,13.42c.8-.94,1.24-2.13,1.24-3.36,0-1.16-.38-2.26-1.08-3.16l-7.76,7.76c-.26,.26-.68,.26-.93,0-.26-.26-.26-.68,0-.93l8.26-8.26c.13-.13,.29-.2,.48-.19,.18,0,.35,.08,.47,.22l.04,.05c1.18,1.2,1.84,2.82,1.84,4.52,0,1.56-.56,3.06-1.57,4.24-.01,.01-.02,.02-.03,.04L11.47,36.11c-.11,.11-.17,.25-.17,.4,0,.31,.25,.56,.56,.56,.36,0,.66,.3,.66,.66s-.3,.66-.66,.66Z"/><g><path class="al" d="M10.86,60.39c-.17,0-.34-.06-.47-.19-1.23-1.23-1.9-2.86-1.9-4.6,0-1.55,.55-3.04,1.55-4.21,.24-.28,.65-.31,.93-.07,.28,.24,.31,.65,.07,.93-.8,.93-1.23,2.13-1.23,3.36,0,1.16,.38,2.26,1.08,3.16l29.11-29.11c-.9-.69-2-1.07-3.15-1.07h-3.57c.06,.18,.09,.37,.09,.56,0,.5-.2,.98-.56,1.34L14.06,49.23c-.26,.26-.68,.26-.93,0-.26-.26-.26-.68,0-.93L31.88,29.54c.08-.08,.17-.21,.17-.4,0-.31-.25-.56-.56-.56-.36,0-.66-.3-.66-.66s.3-.66,.66-.66h5.37c1.73,0,3.36,.67,4.58,1.89,.12,.12,.19,.29,.19,.47s-.07,.34-.19,.47L11.33,60.19c-.13,.13-.3,.19-.47,.19Z"/><path class="ao" d="M24.62,38.4h-6.81c-.36,0-.66-.3-.66-.66s.3-.66,.66-.66h6.53l7.53-7.53c.08-.08,.17-.21,.17-.4,0-.31-.25-.56-.56-.56h-12.47l-7.53,7.53c-.11,.11-.17,.25-.17,.4,0,.31,.25,.56,.56,.56h3.32c.36,0,.66,.3,.66,.66s-.3,.66-.66,.66h-3.32c-1.04,0-1.89-.85-1.89-1.89,0-.5,.2-.99,.56-1.34l7.72-7.72c.12-.12,.29-.19,.47-.19h12.75c1.04,0,1.89,.85,1.89,1.89,0,.5-.2,.98-.56,1.34l-7.72,7.72c-.12,.12-.29,.19-.47,.19Z"/></g><path class="an" d="M5.84,24.97c-.17,0-.34-.06-.47-.19-.26-.26-.26-.68,0-.93L26.85,2.37c.26-.26,.68-.26,.93,0,.26,.26,.26,.68,0,.93L6.31,24.78c-.13,.13-.3,.19-.47,.19Z"/><path class="ap" d="M2.38,36.7c-.17,0-.34-.06-.46-.19-.98-.97-1.62-2.21-1.84-3.57-.06-.35-.08-.69-.08-1.03,0-1.6,.59-3.14,1.65-4.33l1.57-1.57c.26-.26,.68-.26,.93,0s.26,.68,0,.93l-1.54,1.54c-.82,.92-1.29,2.15-1.29,3.42,0,.27,.02,.54,.07,.83,.14,.87,.49,1.67,1.02,2.35l15.73-15.73c.26-.26,.68-.26,.93,0,.26,.26,.26,.68,0,.93L2.85,36.5c-.13,.13-.3,.19-.47,.19Z"/><path class="af" d="M21.51,17.57c-.17,0-.34-.06-.47-.19-.26-.26-.26-.68,0-.93L31.55,5.93l-1.51-1.51c-.26-.26-.26-.68,0-.93,.26-.26,.68-.26,.93,0l1.95,1.95c.13,.12,.21,.29,.22,.47,0,.18-.07,.36-.19,.48l-10.98,10.98c-.13,.13-.3,.19-.47,.19Z"/><path class="ae" d="M29.92,49.59c-.17,0-.34-.06-.47-.19-.26-.26-.26-.68,0-.93l6.34-6.34c.26-.26,.68-.26,.93,0,.26,.26,.26,.68,0,.93l-6.34,6.34c-.13,.13-.3,.19-.47,.19Z"/><path class="ah" d="M37.81,41.7c-.17,0-.34-.06-.47-.19-.26-.26-.26-.68,0-.93l.44-.44c.26-.26,.68-.26,.93,0s.26,.68,0,.93l-.44,.44c-.13,.13-.3,.19-.47,.19Z"/><path class="ai" d="M14.95,64.56c-.18,0-.34-.07-.47-.19l-4.13-4.13c-.26-.26-.26-.68,0-.93l.04-.04,30.11-30.11c.26-.26,.67-.26,.93,0,.98,.97,1.62,2.21,1.84,3.57,.06,.34,.08,.69,.08,1.03,0,1.62-.6,3.17-1.68,4.36l-.06,.06s-.04,.04-.07,.06l-.3,.3s-.03,.03-.05,.04l-1.32,1.32c-.26,.26-.68,.26-.93,0-.26-.26-.26-.68,0-.93l1.35-1.35s.03-.03,.05-.04l.31-.31,.03-.03h0c.87-.96,1.34-2.2,1.34-3.49,0-.28-.02-.55-.07-.83-.14-.87-.49-1.67-1.02-2.35L11.76,59.76l3.2,3.2,11-11c.26-.26,.68-.26,.93,0,.26,.26,.26,.68,0,.93l-11.46,11.46c-.12,.12-.29,.19-.47,.19Z"/></g><g><circle class="ar" cx="28.18" cy="1.98" r="1.54"/><path class="ag" d="M28.18,3.95c-.53,0-1.02-.21-1.4-.58h0c-.37-.37-.58-.87-.58-1.4s.21-1.02,.58-1.4c.37-.37,.87-.58,1.4-.58s1.02,.21,1.4,.58c.37,.37,.58,.87,.58,1.4s-.21,1.02-.58,1.4c-.37,.37-.87,.58-1.4,.58Zm0-3.07c-.29,0-.57,.11-.77,.32-.21,.21-.32,.48-.32,.77s.11,.57,.32,.77h0c.41,.41,1.14,.41,1.55,0,.21-.21,.32-.48,.32-.77s-.11-.57-.32-.77c-.21-.21-.48-.32-.77-.32Z"/></g><g><circle class="ar" cx="21.51" cy="16.91" r="1.54"/><path class="y" d="M21.51,18.88c-.53,0-1.02-.21-1.4-.58h0c-.77-.77-.77-2.02,0-2.79,.37-.37,.87-.58,1.4-.58s1.02,.21,1.4,.58c.37,.37,.58,.87,.58,1.4s-.21,1.02-.58,1.4c-.37,.37-.87,.58-1.4,.58Zm-.77-1.2c.41,.41,1.13,.41,1.55,0,.21-.21,.32-.48,.32-.77s-.11-.57-.32-.77c-.41-.41-1.13-.41-1.55,0s-.43,1.12,0,1.55h0Z"/></g><g><circle class="ar" cx="18.29" cy="37.74" r="1.54"/><path class="x" d="M18.29,39.71c-.51,0-1.01-.19-1.4-.58h0c-.77-.77-.77-2.02,0-2.79,.77-.77,2.02-.77,2.79,0s.77,2.02,0,2.79c-.39,.39-.89,.58-1.4,.58Zm-.77-1.2c.43,.43,1.12,.43,1.55,0s.43-1.12,0-1.55-1.12-.43-1.55,0-.43,1.12,0,1.55Z"/></g><g><circle class="ar" cx="13.59" cy="48.75" r="1.54"/><path class="a`" d="M13.59,50.72c-.53,0-1.02-.21-1.4-.58h0c-.77-.77-.77-2.02,0-2.79,.37-.37,.87-.58,1.4-.58s1.02,.21,1.4,.58c.37,.37,.58,.87,.58,1.4s-.21,1.02-.58,1.4c-.37,.37-.87,.58-1.4,.58Zm-.77-1.2c.41,.41,1.14,.41,1.55,0,.21-.21,.32-.48,.32-.77s-.11-.57-.32-.77c-.41-.41-1.13-.41-1.55,0-.43,.43-.43,1.12,0,1.55Z"/></g><g><circle class="ar" cx="26.38" cy="52.45" r="1.54"/><path class="aq" d="M26.38,54.42c-.53,0-1.02-.21-1.4-.58h0c-.37-.37-.58-.87-.58-1.4s.21-1.02,.58-1.4c.37-.37,.87-.58,1.4-.58s1.02,.21,1.4,.58c.77,.77,.77,2.02,0,2.79-.37,.37-.87,.58-1.4,.58Zm0-3.07c-.29,0-.57,.11-.77,.32s-.32,.48-.32,.77,.11,.57,.32,.77h0c.41,.41,1.13,.41,1.55,0,.43-.43,.43-1.12,0-1.55-.21-.21-.48-.32-.77-.32Z"/></g></g></g></g></g></svg>